<svg version="1.1" id="Layer_1" xmlns="https://www.w3.org/2000/svg" xmlns:xlink="https://www.w3.org/1999/xlink" x="0px" y="0px"
	 width="397.765px" height="439.99px" viewBox="209.263 17.223 397.765 439.99"
	 enable-background="new 209.263 17.223 397.765 439.99" xml:space="preserve">
<g transform="translate(-450 -80)">
	<g>
		<path fill="#FFFFFF" d="M918.805,267.108l-4.81,15.129l15.54,4.952l15.637,62.64l7.429,14.478l-28.653,14.842l-116.801-225.54
			l-29.192-56.385l-28.193,14.604c-1.587,1.048-8.35,6.223-10.35,8.826c-2.524,2.968-4.683,5.841-6.477,8.477
			c-3.698,5.365-6.699,10.08-10.128,14.445c-6.715,8.73-14.795,15.922-25.018,21.604c-9.461,5.572-21.128,8.747-33.129,11.922
			c-1.794,0.476-3.604,1.031-5.397,1.571l3.35,6.492c1.096-0.063,2.207-0.19,3.318-0.237c12.175-0.604,25.065-1.017,38.24-5.255
			c12.478-3.683,25.129-10.524,35.558-19.382c10.081-8.224,18.367-18.398,24.621-20.319l0.016,0.032l121.627,258.796l-18.43,9.557
			l7.303,14.096l17.891-9.271l13.523,28.764l-16.811,8.715l7.303,14.097l16.254-8.413l13.525,28.748l-15.191,7.857l7.302,14.112
			l14.636-7.588l6.762,14.382c0,0,21.907,42.272,78.292,13.08c56.386-29.192,34.495-71.481,34.495-71.481
			s-55.052-86.26-44.305-120.071c3.571-11.191,6.238-17.24,8.048-20.525l20.271,6.429l4.81-15.112L918.805,267.108z
			 M1010.541,477.314c0,0,7.303,14.096-5.604,20.795c-12.904,6.683-22.588-6.191-22.588-6.191l-7.303-14.096l28.24-14.636
			L1010.541,477.314z M996.049,449.058l-28.304,14.668l-14.589-28.177l28.415-14.731L996.049,449.058z M974.332,406.69
			l-28.479,14.747l-14.604-28.192l28.605-14.811L974.332,406.69z"/>
	</g>
</g>
</svg>
