<svg xmlns="http://www.w3.org/2000/svg" width="4781.999" height="345.384" viewBox="0 0 4781.999 345.384"><path d="M268.689 211.293c0 42.332-12.277 75.259-36.824 98.79-24.555 23.539-59.348 35.301-104.377 35.301-41.99 0-73.736-9.476-95.234-28.444C10.746 297.98 0 272.076 0 239.229c0-9.816 1.016-20.316 3.049-31.491L89.395 192.5c-1.699 12.873-2.541 23.364-2.541 31.491 0 18.626 3.635 32.086 10.922 40.38 7.277 8.301 18.539 12.443 33.775 12.443 17.943 0 30.729-5.92 38.348-17.777 7.619-11.848 11.428-30.809 11.428-56.886V5.079h87.363v206.214zm250.905 53.332H403.789l-23.364 75.68h-87.87L410.392 5.079h104.631l117.329 335.226H542.45l-22.856-75.68zm-18.285-59.427l-24.38-80.25L462.2 72.124h-1.016l-13.714 52.315-25.396 80.759h79.235zm439.341 69.077v66.029H653.17v-62.982L840.591 71.108H656.726V5.079h277.83v62.982L748.15 274.275h192.5zm322.013 0v66.029h-287.48v-62.982l187.421-206.214H978.738V5.079h277.83v62.982l-186.405 206.214h192.5zm294.591 45.967c-25.737 16.761-57.062 25.142-93.965 25.142-33.863 0-63.156-6.857-87.869-20.571-24.722-13.713-43.681-33.522-56.887-59.426-13.206-25.904-19.809-56.8-19.809-92.695 0-35.554 6.603-66.363 19.809-92.441 13.206-26.07 32.165-45.966 56.887-59.68C1400.133 6.857 1429.259 0 1462.781 0c36.57 0 67.553 7.706 92.949 23.11 25.396 15.412 42.157 38.522 50.283 69.331l-76.695 30.983c-4.746-20.317-12.023-34.539-21.84-42.665-9.825-8.126-23.706-12.19-41.649-12.19-24.722 0-43.855 8.889-57.395 26.666-13.547 17.777-20.316 43.602-20.316 77.458 0 33.864 6.516 59.68 19.555 77.457 13.031 17.777 31.911 26.666 56.633 26.666 18.618 0 33.348-4.396 44.188-13.205 10.833-8.802 18.285-22.682 22.349-41.65l79.234 22.35c-9.483 33.861-27.094 59.169-52.823 75.931zm339.542-299.671c24.547 13.714 43.427 33.522 56.633 59.426 13.205 25.904 19.809 56.807 19.809 92.695 0 35.895-6.604 66.791-19.809 92.695-13.206 25.903-32.086 45.713-56.633 59.426-24.555 13.714-53.76 20.571-87.616 20.571-33.863 0-63.156-6.857-87.869-20.571-24.722-13.713-43.681-33.522-56.887-59.426-13.206-25.904-19.809-56.8-19.809-92.695 0-35.888 6.603-66.791 19.809-92.695s32.165-45.712 56.887-59.426C1746.023 6.857 1775.316 0 1809.18 0c33.856 0 63.061 6.857 87.616 20.571zM1753.31 94.98c-12.873 17.61-19.301 43.514-19.301 77.711 0 34.205 6.428 60.109 19.301 77.71 12.864 17.611 31.49 26.412 55.87 26.412s42.919-8.801 55.617-26.412c12.698-17.602 19.047-43.505 19.047-77.71 0-34.197-6.349-60.101-19.047-77.711-12.698-17.603-31.237-26.412-55.617-26.412s-43.006 8.81-55.87 26.412zm582.072 245.325h-97.012l-104.123-181.327-25.396-50.792h-.508l2.031 62.981v169.137h-77.203V5.079h97.012l104.123 181.326 25.396 50.792h.508l-2.031-62.982V5.079h77.203v335.226zM2691.43 72.632h-109.202v267.672h-87.361V72.632h-109.71V5.079h306.273v67.553zm187.929 145.264h-52.315v122.408h-85.838V5.079h159.993c40.634 0 71.87 9.143 93.711 27.428 21.841 18.285 32.761 44.697 32.761 79.235 0 24.38-5.587 44.697-16.762 60.95-11.174 16.253-27.427 28.276-48.76 36.062l85.33 131.551h-96.504l-71.616-122.409zm-52.315-61.965h59.426c18.618 0 32.166-3.381 40.634-10.159 8.46-6.77 12.697-17.603 12.697-32.506 0-14.555-4.237-25.221-12.697-31.999-8.468-6.77-22.016-10.158-40.634-10.158h-59.426v84.822zm531.786 116.821v67.553h-267.672V5.079h261.069v67.553H3178.52v68.061h138.153v63.49H3178.52v68.569h180.31zm52.821-267.673h163.041c80.584.341 120.884 30.475 120.884 90.409 0 19.642-5.762 36.237-17.269 49.776-11.516 13.547-28.443 22.015-50.792 25.396v.508c25.055 3.389 44.102 12.111 57.141 26.158 13.031 14.055 19.555 31.579 19.555 52.569 0 29.127-10.333 51.475-30.982 67.045-20.658 15.579-50.967 23.365-90.917 23.365h-170.66V5.079zm147.296 137.138c31.49 0 47.236-12.19 47.236-36.57 0-24.38-15.746-36.57-47.236-36.57h-62.982v73.14h62.982zm8.635 136.629c15.57 0 27.34-3.213 35.3-9.65 7.952-6.428 11.936-15.744 11.936-27.936 0-11.848-3.983-20.903-11.936-27.173-7.96-6.262-19.729-9.396-35.3-9.396h-71.617v74.155h71.617zm381.441-14.221h-115.805l-23.364 75.68h-87.87L3839.821 5.079h104.631l117.329 335.226h-89.901l-22.857-75.68zm-18.285-59.427l-24.38-80.25-14.729-52.824h-1.016l-13.714 52.315-25.396 80.759h79.235zm472.356 135.107h-97.012l-104.123-181.327-25.396-50.792h-.508l2.031 62.981v169.137h-77.203V5.079h97.012l104.123 181.326 25.396 50.792h.508l-2.031-62.982V5.079h77.203v335.226zm337.002-291.799c27.936 28.951 41.903 70.346 41.903 124.186s-13.968 95.234-41.903 124.185-68.148 43.428-120.63 43.428h-142.217V5.079h142.217c52.481 0 92.694 14.476 120.63 43.427zm-67.299 200.373c13.206-16.928 19.809-42.323 19.809-76.187 0-33.856-6.603-59.252-19.809-76.188-13.206-16.928-33.864-25.396-61.966-25.396h-46.221v203.167h46.221c28.102 0 48.76-8.461 61.966-25.396z" fill="#fff"/></svg>